<?xml version="1.0" encoding="utf-8"?>
<!-- Generator: Adobe Illustrator 28.0.0, SVG Export Plug-In . SVG Version: 6.00 Build 0)  -->
<svg version="1.1" id="Layer_1" xmlns="http://www.w3.org/2000/svg" xmlns:xlink="http://www.w3.org/1999/xlink" x="0px" y="0px"
	 viewBox="0 0 51 51" style="enable-background:new 0 0 51 51;" xml:space="preserve">
<style type="text/css">
	.st0{fill:#16AB05;}
	.st1{fill:#5E33BF;}
</style>
<g>
	<path class="st0" d="M21.3,32.6c0.4,1,0.9,2.1,1.4,3.1c0.4,0.7,0.9,1.4,1.4,2c4.8-1.2,9.1-3.7,12.5-7.2c-0.8-1.8-1.8-3.5-3-5
		C30.5,29.2,26.2,31.8,21.3,32.6z"/>
	<path class="st1" d="M24.1,13.3c-1.2,1.6-2.1,3.3-2.8,5.1c4.9,0.8,9.2,3.4,12.2,7.1c1.2-1.5,2.3-3.2,3-5
		C33.2,17.1,28.9,14.5,24.1,13.3z"/>
	<path d="M21.3,32.6c-1.5-3.9-1.7-8.2-0.6-12.3c0.2-0.6,0.4-1.2,0.6-1.8c-1.1-0.2-2.2-0.3-3.4-0.3c-0.8,0-1.6,0-2.4,0.1
		c-1.3,4.6-1.4,9.6,0,14.4c0.8,0.1,1.6,0.2,2.4,0.2C19.1,32.9,20.2,32.8,21.3,32.6z"/>
</g>
</svg>
